<svg class="svg-icon" style="color: white; width: 1em;height: 1em;vertical-align: middle;fill: currentColor;overflow: hidden;" viewBox="0 0 1024 1024" version="1.1" xmlns="http://www.w3.org/2000/svg"><path d="M716.8 307.2c0-113.1008-91.66848-204.8-204.8-204.8-113.1008 0-204.8 91.6992-204.8 204.8H102.4v546.14016C102.4 890.86976 133.13024 921.6 170.67008 921.6h682.65984C890.86976 921.6 921.6 890.86976 921.6 853.34016V307.2H716.8zM512 170.67008c75.42784 0 136.52992 61.1328 136.52992 136.52992H375.47008c0-75.39712 61.1328-136.52992 136.52992-136.52992z m341.32992 682.67008H170.67008V375.47008H307.2v136.54016h68.27008V375.47008h273.05984v136.54016H716.8V375.47008h136.52992v477.87008z"  /></svg>